<?xml version="1.0" standalone="no"?><!DOCTYPE svg PUBLIC "-//W3C//DTD SVG 1.1//EN" "http://www.w3.org/Graphics/SVG/1.1/DTD/svg11.dtd"><svg class="icon" width="128px" height="128.00px" viewBox="0 0 1024 1024" version="1.1" xmlns="http://www.w3.org/2000/svg"><path d="M121.568 204.192c-53.91 0-97.77-43.86-97.77-97.77 0-53.93 43.86-97.804 97.77-97.804 53.93 0 97.804 43.874 97.804 97.804 0 53.91-43.874 97.77-97.804 97.77z m0-130.392c-17.97 0-32.588 14.632-32.588 32.622 0 17.97 14.618 32.59 32.588 32.59 17.99 0 32.624-14.62 32.624-32.59 0-17.99-14.636-32.622-32.624-32.622zM926.554 281.276c-53.912 0-97.772-43.86-97.772-97.772 0-53.91 43.86-97.77 97.772-97.77 53.894 0 97.738 43.86 97.738 97.77 0 53.912-43.842 97.772-97.738 97.772z m0-130.362c-17.97 0-32.59 14.62-32.59 32.59 0 17.972 14.62 32.59 32.59 32.59 17.952 0 32.556-14.618 32.556-32.59 0.002-17.97-14.604-32.59-32.556-32.59zM926.554 998.262c-53.912 0-97.772-43.862-97.772-97.772 0-53.912 43.86-97.774 97.772-97.774 53.894 0 97.738 43.862 97.738 97.774 0 53.91-43.842 97.772-97.738 97.772z m0-130.364c-17.97 0-32.59 14.622-32.59 32.592s14.62 32.59 32.59 32.59c17.952 0 32.556-14.62 32.556-32.59s-14.604-32.592-32.556-32.592zM470.292 411.636c-53.912 0-97.772-43.86-97.772-97.772 0-53.91 43.86-97.772 97.772-97.772 53.892 0 97.74 43.862 97.74 97.772 0 53.912-43.848 97.772-97.74 97.772z m0-130.36c-17.97 0-32.592 14.62-32.592 32.59 0 17.972 14.62 32.592 32.592 32.592 17.952 0 32.556-14.62 32.556-32.592 0-17.97-14.604-32.59-32.556-32.59zM535.47 770.13c-53.908 0-97.772-43.862-97.772-97.774s43.864-97.772 97.772-97.772c53.892 0 97.738 43.86 97.738 97.772s-43.844 97.774-97.738 97.774z m0-130.36c-17.968 0-32.588 14.618-32.588 32.588s14.62 32.59 32.588 32.59c17.954 0 32.558-14.62 32.558-32.59s-14.604-32.588-32.558-32.588zM100.914 1020c-53.912 0-97.772-43.862-97.772-97.774 0-53.91 43.86-97.77 97.772-97.77 53.91 0 97.77 43.86 97.77 97.77 0 53.912-43.86 97.774-97.77 97.774z m0-130.364c-17.97 0-32.59 14.62-32.59 32.59s14.62 32.59 32.59 32.59c17.97 0 32.59-14.62 32.59-32.59s-14.622-32.59-32.59-32.59z" fill="#8790b9" /><path d="M556.798 352.786l362.73 505.368-52.954 38.008-362.728-505.37 52.952-38.006zM388.466 361.572l55.02 34.95L150.184 858.24l-55.018-34.948 293.3-461.72z" fill="#8790b9" /><path d="M192.784 153.916l320.612 456.43-53.34 37.466L139.448 191.382l53.336-37.466zM875.154 224.004l52.106 39.168-307.822 403.526-52.108-39.168 307.824-403.526z" fill="#8790b9" /></svg>