<?xml version="1.0" standalone="no"?><!DOCTYPE svg PUBLIC "-//W3C//DTD SVG 1.1//EN" "http://www.w3.org/Graphics/SVG/1.1/DTD/svg11.dtd"><svg t="1611821266060" class="icon" viewBox="0 0 1024 1024" version="1.1" xmlns="http://www.w3.org/2000/svg" p-id="1860" width="128" height="128" xmlns:xlink="http://www.w3.org/1999/xlink"><defs><style type="text/css"></style></defs><path d="M919.552 94.208H104.448c-23.552 0-41.984 19.968-41.984 44.544v745.984c0 24.576 18.944 44.544 41.984 44.544h815.616c23.552 0 41.984-19.968 41.984-44.544V139.264c0-25.088-18.944-45.056-42.496-45.056z m-20.992 201.216v164.352h-111.616v0.512c-7.168 1.024-13.312 4.096-18.944 8.192l-214.528 160.768-186.368-206.336v0.512c-6.656-4.608-14.848-7.68-23.552-7.68-8.192 0-15.872 2.56-22.016 6.656l-112.64 148.992c-3.072 2.048-5.632 4.096-8.192 7.168H125.44V295.424h773.12zM399.36 139.264c23.552 0 41.984 19.968 41.984 44.544s-18.944 44.544-41.984 44.544-41.984-19.968-41.984-44.544 18.944-44.544 41.984-44.544z m-126.464 0c23.552 0 41.984 19.968 41.984 44.544s-18.944 44.544-41.984 44.544-41.984-19.968-41.984-44.544 18.944-44.544 41.984-44.544z m-126.464 0c23.552 0 41.984 19.968 41.984 44.544s-18.944 44.544-41.984 44.544-41.984-19.968-41.984-44.544 18.944-44.544 41.984-44.544z m-20.992 723.456v-207.872h119.296v-3.072c3.584-1.536 6.656-3.072 9.728-5.12l88.064-118.272 187.392 192c6.656 5.12 15.36 8.192 24.064 8.192 9.216 0 17.92-3.072 24.576-8.704l239.104-179.2c2.56-2.048 5.12-4.096 7.168-7.168h73.728v328.704l-773.12 0.512z" fill="#008df0" p-id="1861"></path></svg>